REM DIRINDEX 1
REM DIRNAME cjc118
TITLE ""
FILE "36_dokkai_2_q50_54.mp3" MP3
  TRACK 01 AUDIO
    TITLE "0:"
    INDEX 01 00:00:00
  TRACK 02 AUDIO
    TITLE "1:cjc118_1962"
    INDEX 01 00:00:17
  TRACK 03 AUDIO
    TITLE "1:cjc118_1963"
    INDEX 01 00:05:50
  TRACK 04 AUDIO
    TITLE "1:cjc118_1964"
    INDEX 01 00:09:73
  TRACK 05 AUDIO
    TITLE "1:cjc118_1965"
    INDEX 01 00:20:67
  TRACK 06 AUDIO
    TITLE "1:cjc118_1966"
    INDEX 01 00:24:37
  TRACK 07 AUDIO
    TITLE "1:cjc118_1967"
    INDEX 01 00:32:00
  TRACK 08 AUDIO
    TITLE "1:cjc118_1968"
    INDEX 01 00:44:42
  TRACK 09 AUDIO
    TITLE "1:cjc118_1969"
    INDEX 01 00:50:13
  TRACK 10 AUDIO
    TITLE "1:cjc118_1970"
    INDEX 01 00:57:21
  TRACK 11 AUDIO
    TITLE "1:cjc118_1971"
    INDEX 01 01:09:44
  TRACK 12 AUDIO
    TITLE "1:cjc118_1972"
    INDEX 01 01:14:21
  TRACK 13 AUDIO
    TITLE "1:cjc118_1973"
    INDEX 01 01:21:10
  TRACK 14 AUDIO
    TITLE "1:cjc118_1974"
    INDEX 01 01:33:25
  TRACK 15 AUDIO
    TITLE "1:cjc118_1975"
    INDEX 01 01:42:35
  TRACK 16 AUDIO
    TITLE "1:cjc118_1976"
    INDEX 01 01:44:17
  TRACK 17 AUDIO
    TITLE "1:cjc118_1977"
    INDEX 01 01:46:23
  TRACK 18 AUDIO
    TITLE "1:cjc118_1978"
    INDEX 01 01:48:48
  TRACK 19 AUDIO
    TITLE "1:cjc118_1979"
    INDEX 01 01:51:34
  TRACK 20 AUDIO
    TITLE "1:cjc118_1980"
    INDEX 01 01:55:16
  TRACK 21 AUDIO
    TITLE "1:cjc118_1981"
    INDEX 01 01:56:08
  TRACK 22 AUDIO
    TITLE "1:cjc118_1982"
    INDEX 01 01:59:34
  TRACK 23 AUDIO
    TITLE "1:cjc118_1983"
    INDEX 01 02:04:02
  TRACK 24 AUDIO
    TITLE "1:cjc118_1984"
    INDEX 01 02:07:08
  TRACK 25 AUDIO
    TITLE "1:cjc118_1985"
    INDEX 01 02:13:18
  TRACK 26 AUDIO
    TITLE "1:cjc118_1986"
    INDEX 01 02:20:69
  TRACK 27 AUDIO
    TITLE "1:cjc118_1987"
    INDEX 01 02:24:24
  TRACK 28 AUDIO
    TITLE "1:cjc118_1988"
    INDEX 01 02:27:73
  TRACK 29 AUDIO
    TITLE "1:cjc118_1989"
    INDEX 01 02:29:72
  TRACK 30 AUDIO
    TITLE "1:cjc118_1990"
    INDEX 01 02:33:54
  TRACK 31 AUDIO
    TITLE "1:cjc118_1991"
    INDEX 01 02:36:57
  TRACK 32 AUDIO
    TITLE "1:cjc118_1992"
    INDEX 01 02:39:02
  TRACK 33 AUDIO
    TITLE "1:cjc118_1993"
    INDEX 01 02:40:50
  TRACK 34 AUDIO
    TITLE "1:cjc118_1994"
    INDEX 01 02:43:02
  TRACK 35 AUDIO
    TITLE "1:cjc118_1995"
    INDEX 01 02:45:30
  TRACK 36 AUDIO
    TITLE "1:cjc118_1996"
    INDEX 01 02:47:68
  TRACK 37 AUDIO
    TITLE "1:cjc118_1997"
    INDEX 01 02:51:19
  TRACK 38 AUDIO
    TITLE "1:cjc118_1998"
    INDEX 01 02:52:07
  TRACK 39 AUDIO
    TITLE "1:cjc118_1999"
    INDEX 01 02:58:68
  TRACK 40 AUDIO
    TITLE "1:cjc118_2000"
    INDEX 01 03:01:47
  TRACK 41 AUDIO
    TITLE "1:cjc118_2001"
    INDEX 01 03:06:18
  TRACK 42 AUDIO
    TITLE "1:cjc118_2002"
    INDEX 01 03:09:72
  TRACK 43 AUDIO
    TITLE "1:cjc118_2003"
    INDEX 01 03:12:19
  TRACK 44 AUDIO
    TITLE "1:cjc118_2004"
    INDEX 01 03:14:12
  TRACK 45 AUDIO
    TITLE "1:cjc118_2005"
    INDEX 01 03:16:21
  TRACK 46 AUDIO
    TITLE "1:cjc118_2006"
    INDEX 01 03:17:69
  TRACK 47 AUDIO
    TITLE "1:cjc118_2007"
    INDEX 01 03:19:19
  TRACK 48 AUDIO
    TITLE "1:cjc118_2008"
    INDEX 01 03:24:26
  TRACK 49 AUDIO
    TITLE "1:cjc118_2009"
    INDEX 01 03:25:32
  TRACK 50 AUDIO
    TITLE "1:cjc118_2010"
    INDEX 01 03:27:27
  TRACK 51 AUDIO
    TITLE "1:cjc118_2011"
    INDEX 01 03:28:38
  TRACK 52 AUDIO
    TITLE "1:cjc118_2012"
    INDEX 01 03:30:37
  TRACK 53 AUDIO
    TITLE "1:cjc118_2013"
    INDEX 01 03:31:46
  TRACK 54 AUDIO
    TITLE "1:cjc118_2014"
    INDEX 01 03:33:62
  TRACK 55 AUDIO
    TITLE "1:cjc118_2015"
    INDEX 01 03:34:72
  TRACK 56 AUDIO
    TITLE "1:cjc118_2016"
    INDEX 01 03:36:61
  TRACK 57 AUDIO
    TITLE "1:cjc118_2017"
    INDEX 01 03:38:42
  TRACK 58 AUDIO
    TITLE "1:cjc118_2018"
    INDEX 01 03:40:02
  TRACK 59 AUDIO
    TITLE "1:cjc118_2019"
    INDEX 01 03:43:24
  TRACK 60 AUDIO
    TITLE "1:cjc118_2020"
    INDEX 01 03:44:29
  TRACK 61 AUDIO
    TITLE "1:cjc118_2021"
    INDEX 01 03:47:25
  TRACK 62 AUDIO
    TITLE "1:cjc118_2022"
    INDEX 01 03:48:33
  TRACK 63 AUDIO
    TITLE "1:cjc118_2023"
    INDEX 01 03:51:74
  TRACK 64 AUDIO
    TITLE "1:cjc118_2024"
    INDEX 01 03:53:12
  TRACK 65 AUDIO
    TITLE "1:cjc118_2025"
    INDEX 01 03:56:52
  TRACK 66 AUDIO
    TITLE "1:cjc118_2026"
    INDEX 01 03:57:65
  TRACK 67 AUDIO
    TITLE "1:cjc118_2027"
    INDEX 01 04:00:14
  TRACK 68 AUDIO
    TITLE "1:cjc118_2028"
    INDEX 01 04:01:70
  TRACK 69 AUDIO
    TITLE "1:cjc118_2029"
    INDEX 01 04:03:28
  TRACK 70 AUDIO
    TITLE "1:cjc118_2030"
    INDEX 01 04:06:01
  TRACK 71 AUDIO
    TITLE "1:cjc118_2031"
    INDEX 01 04:07:08
  TRACK 72 AUDIO
    TITLE "1:cjc118_2032"
    INDEX 01 04:10:18
  TRACK 73 AUDIO
    TITLE "1:cjc118_2033"
    INDEX 01 04:11:28
  TRACK 74 AUDIO
    TITLE "1:cjc118_2034"
    INDEX 01 04:14:10
  TRACK 75 AUDIO
    TITLE "1:cjc118_2035"
    INDEX 01 04:15:22
  TRACK 76 AUDIO
    TITLE "1:cjc118_2036"
    INDEX 01 04:18:18
  TRACK 77 AUDIO
    TITLE "1:cjc118_2037"
    INDEX 01 04:19:23
  TRACK 78 AUDIO
    TITLE "1:cjc118_2038"
    INDEX 01 04:21:63
  TRACK 79 AUDIO
    TITLE "1:cjc118_2039"
    INDEX 01 04:23:47
  TRACK 80 AUDIO
    TITLE "1:cjc118_2040"
    INDEX 01 04:25:16
  TRACK 81 AUDIO
    TITLE "1:cjc118_2041"
    INDEX 01 04:28:67
  TRACK 82 AUDIO
    TITLE "1:cjc118_2042"
    INDEX 01 04:30:02
  TRACK 83 AUDIO
    TITLE "1:cjc118_2043"
    INDEX 01 04:31:58
  TRACK 84 AUDIO
    TITLE "1:cjc118_2044"
    INDEX 01 04:33:04
  TRACK 85 AUDIO
    TITLE "1:cjc118_2045"
    INDEX 01 04:34:68
  TRACK 86 AUDIO
    TITLE "1:cjc118_2046"
    INDEX 01 04:36:12
  TRACK 87 AUDIO
    TITLE "1:cjc118_2047"
    INDEX 01 04:38:05
  TRACK 88 AUDIO
    TITLE "1:cjc118_2048"
    INDEX 01 04:39:14
  TRACK 89 AUDIO
    TITLE "1:cjc118_2049"
    INDEX 01 04:40:61
  TRACK 90 AUDIO
    TITLE "1:cjc118_2050"
    INDEX 01 04:42:42
  TRACK 91 AUDIO
    TITLE "1:cjc118_2051"
    INDEX 01 04:44:08
  TRACK 92 AUDIO
    TITLE "1:cjc118_2052"
    INDEX 01 04:46:69
  TRACK 93 AUDIO
    TITLE "1:cjc118_2053"
    INDEX 01 04:48:05
  TRACK 94 AUDIO
    TITLE "1:cjc118_2054"
    INDEX 01 04:50:40
  TRACK 95 AUDIO
    TITLE "1:cjc118_2055"
    INDEX 01 04:51:53
  TRACK 96 AUDIO
    TITLE "1:cjc118_2056"
    INDEX 01 04:54:49
  TRACK 97 AUDIO
    TITLE "1:cjc118_2057"
    INDEX 01 04:55:62
  TRACK 98 AUDIO
    TITLE "1:cjc118_2058"
    INDEX 01 04:59:13
  TRACK 99 AUDIO
    TITLE "1:cjc118_2059"
    INDEX 01 05:00:22
  TRACK 100 AUDIO
    TITLE "0:"
    INDEX 01 05:03:09
